<mxfile host="app.diagrams.net" modified="2024-04-13T03:00:22.174Z" agent="Mozilla/5.0 (Macintosh; Intel Mac OS X 10.15; rv:124.0) Gecko/20100101 Firefox/124.0" etag="myZA5IGeY7IRks342WWP" version="24.2.1" type="device">
  <diagram name="Page-1" id="e7e014a7-5840-1c2e-5031-d8a46d1fe8dd">
    <mxGraphModel dx="1338" dy="557" grid="1" gridSize="10" guides="1" tooltips="1" connect="1" arrows="1" fold="1" page="1" pageScale="1" pageWidth="1169" pageHeight="826" background="none" math="0" shadow="0">
      <root>
        <mxCell id="0" />
        <mxCell id="1" parent="0" />
        <mxCell id="a5mHZJZjGpSUE6G3XbtX-41" value="User" style="swimlane;fontStyle=1;align=center;verticalAlign=top;childLayout=stackLayout;horizontal=1;startSize=26;horizontalStack=0;resizeParent=1;resizeParentMax=0;resizeLast=0;collapsible=1;marginBottom=0;whiteSpace=wrap;html=1;" vertex="1" parent="1">
          <mxGeometry x="90" y="30" width="230" height="180" as="geometry" />
        </mxCell>
        <mxCell id="a5mHZJZjGpSUE6G3XbtX-42" value="&lt;div&gt;+ id: Integer, PK&lt;/div&gt;" style="text;strokeColor=none;fillColor=none;align=left;verticalAlign=top;spacingLeft=4;spacingRight=4;overflow=hidden;rotatable=0;points=[[0,0.5],[1,0.5]];portConstraint=eastwest;whiteSpace=wrap;html=1;" vertex="1" parent="a5mHZJZjGpSUE6G3XbtX-41">
          <mxGeometry y="26" width="230" height="26" as="geometry" />
        </mxCell>
        <mxCell id="a5mHZJZjGpSUE6G3XbtX-45" value="&lt;div&gt;+ username: String&lt;/div&gt;&lt;div&gt;+ password_hash: String&lt;/div&gt;&lt;div&gt;+ firstname: String&lt;/div&gt;&lt;div&gt;+ lastname: String&lt;/div&gt;&lt;div&gt;+ email: String&lt;/div&gt;&lt;div&gt;+ user_type: String&lt;/div&gt;&lt;div&gt;+ set_password(password): void&lt;/div&gt;&lt;div&gt;+ check_password(password): bool&lt;br&gt;&lt;/div&gt;" style="text;strokeColor=none;fillColor=none;align=left;verticalAlign=top;spacingLeft=4;spacingRight=4;overflow=hidden;rotatable=0;points=[[0,0.5],[1,0.5]];portConstraint=eastwest;whiteSpace=wrap;html=1;" vertex="1" parent="a5mHZJZjGpSUE6G3XbtX-41">
          <mxGeometry y="52" width="230" height="128" as="geometry" />
        </mxCell>
        <mxCell id="a5mHZJZjGpSUE6G3XbtX-46" value="Student" style="swimlane;fontStyle=1;align=center;verticalAlign=top;childLayout=stackLayout;horizontal=1;startSize=26;horizontalStack=0;resizeParent=1;resizeParentMax=0;resizeLast=0;collapsible=1;marginBottom=0;whiteSpace=wrap;html=1;" vertex="1" parent="1">
          <mxGeometry x="40" y="260" width="230" height="166" as="geometry" />
        </mxCell>
        <mxCell id="a5mHZJZjGpSUE6G3XbtX-47" value="&lt;div&gt;+ id: Integer, PK, FK&lt;br&gt;&lt;/div&gt;" style="text;strokeColor=none;fillColor=none;align=left;verticalAlign=top;spacingLeft=4;spacingRight=4;overflow=hidden;rotatable=0;points=[[0,0.5],[1,0.5]];portConstraint=eastwest;whiteSpace=wrap;html=1;" vertex="1" parent="a5mHZJZjGpSUE6G3XbtX-46">
          <mxGeometry y="26" width="230" height="26" as="geometry" />
        </mxCell>
        <mxCell id="a5mHZJZjGpSUE6G3XbtX-106" value="+ major_ID: Integer, FK" style="text;strokeColor=none;fillColor=none;align=left;verticalAlign=top;spacingLeft=4;spacingRight=4;overflow=hidden;rotatable=0;points=[[0,0.5],[1,0.5]];portConstraint=eastwest;whiteSpace=wrap;html=1;" vertex="1" parent="a5mHZJZjGpSUE6G3XbtX-46">
          <mxGeometry y="52" width="230" height="26" as="geometry" />
        </mxCell>
        <mxCell id="a5mHZJZjGpSUE6G3XbtX-48" value="+GPA: float&lt;div&gt;+ graduation_year: Integer&lt;/div&gt;&lt;div&gt;+ user_type: String&lt;/div&gt;&lt;div&gt;+ topics_of_interest: FK&lt;/div&gt;" style="text;strokeColor=none;fillColor=none;align=left;verticalAlign=top;spacingLeft=4;spacingRight=4;overflow=hidden;rotatable=0;points=[[0,0.5],[1,0.5]];portConstraint=eastwest;whiteSpace=wrap;html=1;" vertex="1" parent="a5mHZJZjGpSUE6G3XbtX-46">
          <mxGeometry y="78" width="230" height="88" as="geometry" />
        </mxCell>
        <mxCell id="a5mHZJZjGpSUE6G3XbtX-49" value="Faculty" style="swimlane;fontStyle=1;align=center;verticalAlign=top;childLayout=stackLayout;horizontal=1;startSize=26;horizontalStack=0;resizeParent=1;resizeParentMax=0;resizeLast=0;collapsible=1;marginBottom=0;whiteSpace=wrap;html=1;" vertex="1" parent="1">
          <mxGeometry x="410" y="260" width="230" height="70" as="geometry" />
        </mxCell>
        <mxCell id="a5mHZJZjGpSUE6G3XbtX-50" value="&lt;div&gt;+ id: Integer, PK, FK&lt;br&gt;&lt;/div&gt;" style="text;strokeColor=none;fillColor=none;align=left;verticalAlign=top;spacingLeft=4;spacingRight=4;overflow=hidden;rotatable=0;points=[[0,0.5],[1,0.5]];portConstraint=eastwest;whiteSpace=wrap;html=1;" vertex="1" parent="a5mHZJZjGpSUE6G3XbtX-49">
          <mxGeometry y="26" width="230" height="24" as="geometry" />
        </mxCell>
        <mxCell id="a5mHZJZjGpSUE6G3XbtX-94" value="&lt;div&gt;+ department: ID, FK&lt;br&gt;&lt;/div&gt;" style="text;strokeColor=none;fillColor=none;align=left;verticalAlign=top;spacingLeft=4;spacingRight=4;overflow=hidden;rotatable=0;points=[[0,0.5],[1,0.5]];portConstraint=eastwest;whiteSpace=wrap;html=1;" vertex="1" parent="a5mHZJZjGpSUE6G3XbtX-49">
          <mxGeometry y="50" width="230" height="20" as="geometry" />
        </mxCell>
        <mxCell id="a5mHZJZjGpSUE6G3XbtX-52" value="Department" style="swimlane;fontStyle=1;align=center;verticalAlign=top;childLayout=stackLayout;horizontal=1;startSize=26;horizontalStack=0;resizeParent=1;resizeParentMax=0;resizeLast=0;collapsible=1;marginBottom=0;whiteSpace=wrap;html=1;" vertex="1" parent="1">
          <mxGeometry x="505" y="30" width="160" height="96" as="geometry" />
        </mxCell>
        <mxCell id="a5mHZJZjGpSUE6G3XbtX-96" value="+ id: Integer, PK" style="text;strokeColor=none;fillColor=none;align=left;verticalAlign=top;spacingLeft=4;spacingRight=4;overflow=hidden;rotatable=0;points=[[0,0.5],[1,0.5]];portConstraint=eastwest;whiteSpace=wrap;html=1;" vertex="1" parent="a5mHZJZjGpSUE6G3XbtX-52">
          <mxGeometry y="26" width="160" height="26" as="geometry" />
        </mxCell>
        <mxCell id="a5mHZJZjGpSUE6G3XbtX-53" value="&lt;div&gt;+ name: String&lt;br&gt;&lt;/div&gt;" style="text;strokeColor=none;fillColor=none;align=left;verticalAlign=top;spacingLeft=4;spacingRight=4;overflow=hidden;rotatable=0;points=[[0,0.5],[1,0.5]];portConstraint=eastwest;whiteSpace=wrap;html=1;" vertex="1" parent="a5mHZJZjGpSUE6G3XbtX-52">
          <mxGeometry y="52" width="160" height="44" as="geometry" />
        </mxCell>
        <mxCell id="a5mHZJZjGpSUE6G3XbtX-56" value="ResearchField" style="swimlane;fontStyle=1;align=center;verticalAlign=top;childLayout=stackLayout;horizontal=1;startSize=26;horizontalStack=0;resizeParent=1;resizeParentMax=0;resizeLast=0;collapsible=1;marginBottom=0;whiteSpace=wrap;html=1;" vertex="1" parent="1">
          <mxGeometry x="990" y="30" width="160" height="118" as="geometry" />
        </mxCell>
        <mxCell id="a5mHZJZjGpSUE6G3XbtX-98" value="+ id: Integer" style="text;strokeColor=none;fillColor=none;align=left;verticalAlign=top;spacingLeft=4;spacingRight=4;overflow=hidden;rotatable=0;points=[[0,0.5],[1,0.5]];portConstraint=eastwest;whiteSpace=wrap;html=1;" vertex="1" parent="a5mHZJZjGpSUE6G3XbtX-56">
          <mxGeometry y="26" width="160" height="26" as="geometry" />
        </mxCell>
        <mxCell id="a5mHZJZjGpSUE6G3XbtX-57" value="&lt;div&gt;+ title: String&lt;/div&gt;" style="text;strokeColor=none;fillColor=none;align=left;verticalAlign=top;spacingLeft=4;spacingRight=4;overflow=hidden;rotatable=0;points=[[0,0.5],[1,0.5]];portConstraint=eastwest;whiteSpace=wrap;html=1;" vertex="1" parent="a5mHZJZjGpSUE6G3XbtX-56">
          <mxGeometry y="52" width="160" height="28" as="geometry" />
        </mxCell>
        <mxCell id="a5mHZJZjGpSUE6G3XbtX-58" value="" style="line;strokeWidth=1;fillColor=none;align=left;verticalAlign=middle;spacingTop=-1;spacingLeft=3;spacingRight=3;rotatable=0;labelPosition=right;points=[];portConstraint=eastwest;strokeColor=inherit;" vertex="1" parent="a5mHZJZjGpSUE6G3XbtX-56">
          <mxGeometry y="80" width="160" height="8" as="geometry" />
        </mxCell>
        <mxCell id="a5mHZJZjGpSUE6G3XbtX-59" value="+ get_fields(): query" style="text;strokeColor=none;fillColor=none;align=left;verticalAlign=top;spacingLeft=4;spacingRight=4;overflow=hidden;rotatable=0;points=[[0,0.5],[1,0.5]];portConstraint=eastwest;whiteSpace=wrap;html=1;" vertex="1" parent="a5mHZJZjGpSUE6G3XbtX-56">
          <mxGeometry y="88" width="160" height="30" as="geometry" />
        </mxCell>
        <mxCell id="a5mHZJZjGpSUE6G3XbtX-60" value="ResearchPosition" style="swimlane;fontStyle=1;align=center;verticalAlign=top;childLayout=stackLayout;horizontal=1;startSize=26;horizontalStack=0;resizeParent=1;resizeParentMax=0;resizeLast=0;collapsible=1;marginBottom=0;whiteSpace=wrap;html=1;" vertex="1" parent="1">
          <mxGeometry x="970" y="370" width="160" height="180" as="geometry" />
        </mxCell>
        <mxCell id="a5mHZJZjGpSUE6G3XbtX-92" value="+ id: Integer" style="text;strokeColor=none;fillColor=none;align=left;verticalAlign=top;spacingLeft=4;spacingRight=4;overflow=hidden;rotatable=0;points=[[0,0.5],[1,0.5]];portConstraint=eastwest;whiteSpace=wrap;html=1;" vertex="1" parent="a5mHZJZjGpSUE6G3XbtX-60">
          <mxGeometry y="26" width="160" height="26" as="geometry" />
        </mxCell>
        <mxCell id="a5mHZJZjGpSUE6G3XbtX-108" value="+ faculty: Integer, FK" style="text;strokeColor=none;fillColor=none;align=left;verticalAlign=top;spacingLeft=4;spacingRight=4;overflow=hidden;rotatable=0;points=[[0,0.5],[1,0.5]];portConstraint=eastwest;whiteSpace=wrap;html=1;" vertex="1" parent="a5mHZJZjGpSUE6G3XbtX-60">
          <mxGeometry y="52" width="160" height="26" as="geometry" />
        </mxCell>
        <mxCell id="a5mHZJZjGpSUE6G3XbtX-61" value="&lt;div&gt;+ title: String&lt;/div&gt;&lt;div&gt;+ wanted_GPA: Float&lt;/div&gt;&lt;div&gt;+ description: String&lt;/div&gt;&lt;div&gt;+ research_goals: String&lt;/div&gt;&lt;div&gt;+ start_date: dateTime&lt;/div&gt;&lt;div&gt;+ end_date: dateTime&lt;/div&gt;" style="text;strokeColor=none;fillColor=none;align=left;verticalAlign=top;spacingLeft=4;spacingRight=4;overflow=hidden;rotatable=0;points=[[0,0.5],[1,0.5]];portConstraint=eastwest;whiteSpace=wrap;html=1;" vertex="1" parent="a5mHZJZjGpSUE6G3XbtX-60">
          <mxGeometry y="78" width="160" height="102" as="geometry" />
        </mxCell>
        <mxCell id="a5mHZJZjGpSUE6G3XbtX-64" value="PositionToField" style="swimlane;fontStyle=1;align=center;verticalAlign=top;childLayout=stackLayout;horizontal=1;startSize=26;horizontalStack=0;resizeParent=1;resizeParentMax=0;resizeLast=0;collapsible=1;marginBottom=0;whiteSpace=wrap;html=1;" vertex="1" parent="1">
          <mxGeometry x="970" y="170" width="160" height="80" as="geometry" />
        </mxCell>
        <mxCell id="a5mHZJZjGpSUE6G3XbtX-102" value="+ pos_ID: Integer, FK, PK" style="text;strokeColor=none;fillColor=none;align=left;verticalAlign=top;spacingLeft=4;spacingRight=4;overflow=hidden;rotatable=0;points=[[0,0.5],[1,0.5]];portConstraint=eastwest;whiteSpace=wrap;html=1;" vertex="1" parent="a5mHZJZjGpSUE6G3XbtX-64">
          <mxGeometry y="26" width="160" height="26" as="geometry" />
        </mxCell>
        <mxCell id="a5mHZJZjGpSUE6G3XbtX-65" value="+ field_ID: Integer, FK, PK" style="text;strokeColor=none;fillColor=none;align=left;verticalAlign=top;spacingLeft=4;spacingRight=4;overflow=hidden;rotatable=0;points=[[0,0.5],[1,0.5]];portConstraint=eastwest;whiteSpace=wrap;html=1;" vertex="1" parent="a5mHZJZjGpSUE6G3XbtX-64">
          <mxGeometry y="52" width="160" height="28" as="geometry" />
        </mxCell>
        <mxCell id="a5mHZJZjGpSUE6G3XbtX-68" value="Application" style="swimlane;fontStyle=1;align=center;verticalAlign=top;childLayout=stackLayout;horizontal=1;startSize=26;horizontalStack=0;resizeParent=1;resizeParentMax=0;resizeLast=0;collapsible=1;marginBottom=0;whiteSpace=wrap;html=1;" vertex="1" parent="1">
          <mxGeometry x="470" y="380" width="160" height="172" as="geometry" />
        </mxCell>
        <mxCell id="a5mHZJZjGpSUE6G3XbtX-88" value="&lt;div&gt;+ studentID: Integer, FK, PK&lt;/div&gt;" style="text;strokeColor=none;fillColor=none;align=left;verticalAlign=top;spacingLeft=4;spacingRight=4;overflow=hidden;rotatable=0;points=[[0,0.5],[1,0.5]];portConstraint=eastwest;whiteSpace=wrap;html=1;" vertex="1" parent="a5mHZJZjGpSUE6G3XbtX-68">
          <mxGeometry y="26" width="160" height="26" as="geometry" />
        </mxCell>
        <mxCell id="a5mHZJZjGpSUE6G3XbtX-89" value="+ position: Integer, FK, PK" style="text;strokeColor=none;fillColor=none;align=left;verticalAlign=top;spacingLeft=4;spacingRight=4;overflow=hidden;rotatable=0;points=[[0,0.5],[1,0.5]];portConstraint=eastwest;whiteSpace=wrap;html=1;" vertex="1" parent="a5mHZJZjGpSUE6G3XbtX-68">
          <mxGeometry y="52" width="160" height="26" as="geometry" />
        </mxCell>
        <mxCell id="a5mHZJZjGpSUE6G3XbtX-69" value="+ statetement_of_interest&lt;div&gt;+ reference_email: String&lt;/div&gt;&lt;div&gt;+ reference_name: String&lt;br&gt;&lt;/div&gt;" style="text;strokeColor=none;fillColor=none;align=left;verticalAlign=top;spacingLeft=4;spacingRight=4;overflow=hidden;rotatable=0;points=[[0,0.5],[1,0.5]];portConstraint=eastwest;whiteSpace=wrap;html=1;" vertex="1" parent="a5mHZJZjGpSUE6G3XbtX-68">
          <mxGeometry y="78" width="160" height="94" as="geometry" />
        </mxCell>
        <mxCell id="a5mHZJZjGpSUE6G3XbtX-72" value="Major" style="swimlane;fontStyle=1;align=center;verticalAlign=top;childLayout=stackLayout;horizontal=1;startSize=26;horizontalStack=0;resizeParent=1;resizeParentMax=0;resizeLast=0;collapsible=1;marginBottom=0;whiteSpace=wrap;html=1;" vertex="1" parent="1">
          <mxGeometry x="40" y="490" width="160" height="76" as="geometry" />
        </mxCell>
        <mxCell id="a5mHZJZjGpSUE6G3XbtX-73" value="&lt;div&gt;+ id: Integer&lt;/div&gt;" style="text;strokeColor=none;fillColor=none;align=left;verticalAlign=top;spacingLeft=4;spacingRight=4;overflow=hidden;rotatable=0;points=[[0,0.5],[1,0.5]];portConstraint=eastwest;whiteSpace=wrap;html=1;" vertex="1" parent="a5mHZJZjGpSUE6G3XbtX-72">
          <mxGeometry y="26" width="160" height="24" as="geometry" />
        </mxCell>
        <mxCell id="a5mHZJZjGpSUE6G3XbtX-86" value="&lt;div&gt;+ name: String&lt;br&gt;&lt;/div&gt;" style="text;strokeColor=none;fillColor=none;align=left;verticalAlign=top;spacingLeft=4;spacingRight=4;overflow=hidden;rotatable=0;points=[[0,0.5],[1,0.5]];portConstraint=eastwest;whiteSpace=wrap;html=1;" vertex="1" parent="a5mHZJZjGpSUE6G3XbtX-72">
          <mxGeometry y="50" width="160" height="26" as="geometry" />
        </mxCell>
        <mxCell id="a5mHZJZjGpSUE6G3XbtX-80" value="&lt;b&gt;StudentMajor&lt;/b&gt;" style="swimlane;fontStyle=0;childLayout=stackLayout;horizontal=1;startSize=26;fillColor=none;horizontalStack=0;resizeParent=1;resizeParentMax=0;resizeLast=0;collapsible=1;marginBottom=0;whiteSpace=wrap;html=1;" vertex="1" parent="1">
          <mxGeometry x="280" y="500" width="170" height="78" as="geometry" />
        </mxCell>
        <mxCell id="a5mHZJZjGpSUE6G3XbtX-81" value="+ student_id: Integer, PK, FK" style="text;strokeColor=none;fillColor=none;align=left;verticalAlign=top;spacingLeft=4;spacingRight=4;overflow=hidden;rotatable=0;points=[[0,0.5],[1,0.5]];portConstraint=eastwest;whiteSpace=wrap;html=1;" vertex="1" parent="a5mHZJZjGpSUE6G3XbtX-80">
          <mxGeometry y="26" width="170" height="26" as="geometry" />
        </mxCell>
        <mxCell id="a5mHZJZjGpSUE6G3XbtX-82" value="+ major_id: Integer, PK, FK" style="text;strokeColor=none;fillColor=none;align=left;verticalAlign=top;spacingLeft=4;spacingRight=4;overflow=hidden;rotatable=0;points=[[0,0.5],[1,0.5]];portConstraint=eastwest;whiteSpace=wrap;html=1;" vertex="1" parent="a5mHZJZjGpSUE6G3XbtX-80">
          <mxGeometry y="52" width="170" height="26" as="geometry" />
        </mxCell>
        <mxCell id="a5mHZJZjGpSUE6G3XbtX-84" style="edgeStyle=orthogonalEdgeStyle;rounded=0;orthogonalLoop=1;jettySize=auto;html=1;entryX=1;entryY=0.5;entryDx=0;entryDy=0;fillColor=#FF3333;exitX=0;exitY=0.5;exitDx=0;exitDy=0;strokeColor=#FF0000;" edge="1" parent="1" source="a5mHZJZjGpSUE6G3XbtX-81" target="a5mHZJZjGpSUE6G3XbtX-47">
          <mxGeometry relative="1" as="geometry">
            <Array as="points">
              <mxPoint x="280" y="540" />
              <mxPoint x="250" y="540" />
              <mxPoint x="250" y="450" />
              <mxPoint x="290" y="450" />
              <mxPoint x="290" y="299" />
            </Array>
          </mxGeometry>
        </mxCell>
        <mxCell id="a5mHZJZjGpSUE6G3XbtX-87" style="edgeStyle=orthogonalEdgeStyle;rounded=0;orthogonalLoop=1;jettySize=auto;html=1;exitX=0;exitY=0.5;exitDx=0;exitDy=0;entryX=1;entryY=0.5;entryDx=0;entryDy=0;fillColor=#FF3333;strokeColor=#FF0000;" edge="1" parent="1" source="a5mHZJZjGpSUE6G3XbtX-82" target="a5mHZJZjGpSUE6G3XbtX-73">
          <mxGeometry relative="1" as="geometry" />
        </mxCell>
        <mxCell id="a5mHZJZjGpSUE6G3XbtX-90" style="edgeStyle=orthogonalEdgeStyle;rounded=0;orthogonalLoop=1;jettySize=auto;html=1;exitX=0;exitY=0.5;exitDx=0;exitDy=0;entryX=1;entryY=0.5;entryDx=0;entryDy=0;fillColor=#FF3333;strokeColor=#FF0000;" edge="1" parent="1" source="a5mHZJZjGpSUE6G3XbtX-88" target="a5mHZJZjGpSUE6G3XbtX-47">
          <mxGeometry relative="1" as="geometry" />
        </mxCell>
        <mxCell id="a5mHZJZjGpSUE6G3XbtX-93" style="edgeStyle=orthogonalEdgeStyle;rounded=0;orthogonalLoop=1;jettySize=auto;html=1;exitX=1;exitY=0.5;exitDx=0;exitDy=0;entryX=0;entryY=0.5;entryDx=0;entryDy=0;fillColor=#FF3333;strokeColor=#FF0000;" edge="1" parent="1" source="a5mHZJZjGpSUE6G3XbtX-89" target="a5mHZJZjGpSUE6G3XbtX-92">
          <mxGeometry relative="1" as="geometry" />
        </mxCell>
        <mxCell id="a5mHZJZjGpSUE6G3XbtX-100" style="edgeStyle=orthogonalEdgeStyle;rounded=0;orthogonalLoop=1;jettySize=auto;html=1;exitX=0;exitY=0.5;exitDx=0;exitDy=0;entryX=0;entryY=0.5;entryDx=0;entryDy=0;strokeColor=#FF3333;" edge="1" parent="1" source="a5mHZJZjGpSUE6G3XbtX-47" target="a5mHZJZjGpSUE6G3XbtX-42">
          <mxGeometry relative="1" as="geometry" />
        </mxCell>
        <mxCell id="a5mHZJZjGpSUE6G3XbtX-101" style="edgeStyle=orthogonalEdgeStyle;rounded=0;orthogonalLoop=1;jettySize=auto;html=1;exitX=0;exitY=0.5;exitDx=0;exitDy=0;entryX=1.004;entryY=0.192;entryDx=0;entryDy=0;entryPerimeter=0;fillColor=#FF3333;strokeColor=#FF0000;" edge="1" parent="1" source="a5mHZJZjGpSUE6G3XbtX-155" target="a5mHZJZjGpSUE6G3XbtX-42">
          <mxGeometry relative="1" as="geometry">
            <Array as="points" />
          </mxGeometry>
        </mxCell>
        <mxCell id="a5mHZJZjGpSUE6G3XbtX-104" style="edgeStyle=orthogonalEdgeStyle;rounded=0;orthogonalLoop=1;jettySize=auto;html=1;entryX=1;entryY=0.5;entryDx=0;entryDy=0;fillColor=#FF3333;strokeColor=#FF0000;" edge="1" parent="1" source="a5mHZJZjGpSUE6G3XbtX-102" target="a5mHZJZjGpSUE6G3XbtX-92">
          <mxGeometry relative="1" as="geometry">
            <Array as="points">
              <mxPoint x="1150" y="209" />
              <mxPoint x="1150" y="409" />
            </Array>
          </mxGeometry>
        </mxCell>
        <mxCell id="a5mHZJZjGpSUE6G3XbtX-105" style="edgeStyle=orthogonalEdgeStyle;rounded=0;orthogonalLoop=1;jettySize=auto;html=1;exitX=0;exitY=0.5;exitDx=0;exitDy=0;entryX=0;entryY=0.5;entryDx=0;entryDy=0;fillColor=#FF3333;strokeColor=#FF0000;" edge="1" parent="1" source="a5mHZJZjGpSUE6G3XbtX-65" target="a5mHZJZjGpSUE6G3XbtX-98">
          <mxGeometry relative="1" as="geometry">
            <Array as="points">
              <mxPoint x="920" y="236" />
              <mxPoint x="920" y="69" />
            </Array>
          </mxGeometry>
        </mxCell>
        <mxCell id="a5mHZJZjGpSUE6G3XbtX-107" style="edgeStyle=orthogonalEdgeStyle;rounded=0;orthogonalLoop=1;jettySize=auto;html=1;exitX=0;exitY=0.5;exitDx=0;exitDy=0;entryX=0;entryY=0.5;entryDx=0;entryDy=0;fillColor=#FF3333;strokeColor=#FF0000;" edge="1" parent="1" source="a5mHZJZjGpSUE6G3XbtX-106" target="a5mHZJZjGpSUE6G3XbtX-73">
          <mxGeometry relative="1" as="geometry" />
        </mxCell>
        <mxCell id="a5mHZJZjGpSUE6G3XbtX-110" value="&lt;font color=&quot;#ff0000&quot;&gt;FK&lt;/font&gt;" style="text;html=1;align=center;verticalAlign=middle;whiteSpace=wrap;rounded=0;strokeColor=none;fillColor=none;" vertex="1" parent="1">
          <mxGeometry x="20" y="40" width="60" height="30" as="geometry" />
        </mxCell>
        <mxCell id="a5mHZJZjGpSUE6G3XbtX-111" value="&lt;font color=&quot;#ff0000&quot;&gt;FK&lt;/font&gt;" style="text;html=1;align=center;verticalAlign=middle;whiteSpace=wrap;rounded=0;strokeColor=none;fillColor=none;" vertex="1" parent="1">
          <mxGeometry x="295" y="270" width="60" height="30" as="geometry" />
        </mxCell>
        <mxCell id="a5mHZJZjGpSUE6G3XbtX-113" value="&lt;font color=&quot;#ff0000&quot;&gt;FK&lt;/font&gt;" style="text;html=1;align=center;verticalAlign=middle;whiteSpace=wrap;rounded=0;strokeColor=none;fillColor=none;" vertex="1" parent="1">
          <mxGeometry x="270" y="305" width="60" height="30" as="geometry" />
        </mxCell>
        <mxCell id="a5mHZJZjGpSUE6G3XbtX-114" value="&lt;font color=&quot;#ff0000&quot;&gt;FK&lt;/font&gt;" style="text;html=1;align=center;verticalAlign=middle;whiteSpace=wrap;rounded=0;strokeColor=none;fillColor=none;" vertex="1" parent="1">
          <mxGeometry x="10" y="530" width="40" height="30" as="geometry" />
        </mxCell>
        <mxCell id="a5mHZJZjGpSUE6G3XbtX-119" value="&lt;font color=&quot;#ff0000&quot;&gt;FK&lt;/font&gt;" style="text;html=1;align=center;verticalAlign=middle;whiteSpace=wrap;rounded=0;strokeColor=none;fillColor=none;" vertex="1" parent="1">
          <mxGeometry x="660" y="320" width="20" height="20" as="geometry" />
        </mxCell>
        <mxCell id="a5mHZJZjGpSUE6G3XbtX-120" value="&lt;font color=&quot;#ff0000&quot;&gt;FK&lt;/font&gt;" style="text;html=1;align=center;verticalAlign=middle;whiteSpace=wrap;rounded=0;strokeColor=none;fillColor=none;" vertex="1" parent="1">
          <mxGeometry x="920" y="413" width="30" height="23" as="geometry" />
        </mxCell>
        <mxCell id="a5mHZJZjGpSUE6G3XbtX-121" value="&lt;font color=&quot;#ff0000&quot;&gt;FK&lt;/font&gt;" style="text;html=1;align=center;verticalAlign=middle;whiteSpace=wrap;rounded=0;strokeColor=none;fillColor=none;" vertex="1" parent="1">
          <mxGeometry x="870" y="80" width="30" height="23" as="geometry" />
        </mxCell>
        <mxCell id="a5mHZJZjGpSUE6G3XbtX-122" value="&lt;font color=&quot;#ff0000&quot;&gt;FK&lt;/font&gt;" style="text;html=1;align=center;verticalAlign=middle;whiteSpace=wrap;rounded=0;strokeColor=none;fillColor=none;" vertex="1" parent="1">
          <mxGeometry x="200" y="533" width="40" height="12" as="geometry" />
        </mxCell>
        <mxCell id="a5mHZJZjGpSUE6G3XbtX-123" value="StudentToField" style="swimlane;fontStyle=1;align=center;verticalAlign=top;childLayout=stackLayout;horizontal=1;startSize=26;horizontalStack=0;resizeParent=1;resizeParentMax=0;resizeLast=0;collapsible=1;marginBottom=0;whiteSpace=wrap;html=1;" vertex="1" parent="1">
          <mxGeometry x="490" y="150" width="180" height="78" as="geometry" />
        </mxCell>
        <mxCell id="a5mHZJZjGpSUE6G3XbtX-124" value="+ student_id: Integer, PK, FK" style="text;strokeColor=none;fillColor=none;align=left;verticalAlign=top;spacingLeft=4;spacingRight=4;overflow=hidden;rotatable=0;points=[[0,0.5],[1,0.5]];portConstraint=eastwest;whiteSpace=wrap;html=1;" vertex="1" parent="a5mHZJZjGpSUE6G3XbtX-123">
          <mxGeometry y="26" width="180" height="26" as="geometry" />
        </mxCell>
        <mxCell id="a5mHZJZjGpSUE6G3XbtX-127" value="+ field_id: Integer, PK, FK" style="text;strokeColor=none;fillColor=none;align=left;verticalAlign=top;spacingLeft=4;spacingRight=4;overflow=hidden;rotatable=0;points=[[0,0.5],[1,0.5]];portConstraint=eastwest;whiteSpace=wrap;html=1;" vertex="1" parent="a5mHZJZjGpSUE6G3XbtX-123">
          <mxGeometry y="52" width="180" height="26" as="geometry" />
        </mxCell>
        <mxCell id="a5mHZJZjGpSUE6G3XbtX-128" style="edgeStyle=orthogonalEdgeStyle;rounded=0;orthogonalLoop=1;jettySize=auto;html=1;exitX=0;exitY=0.5;exitDx=0;exitDy=0;entryX=1.009;entryY=0.192;entryDx=0;entryDy=0;entryPerimeter=0;strokeColor=#FF0000;" edge="1" parent="1" source="a5mHZJZjGpSUE6G3XbtX-124" target="a5mHZJZjGpSUE6G3XbtX-47">
          <mxGeometry relative="1" as="geometry">
            <Array as="points">
              <mxPoint x="470" y="189" />
              <mxPoint x="470" y="220" />
              <mxPoint x="280" y="220" />
              <mxPoint x="280" y="291" />
            </Array>
          </mxGeometry>
        </mxCell>
        <mxCell id="a5mHZJZjGpSUE6G3XbtX-130" value="&lt;font color=&quot;#ff0000&quot;&gt;FK&lt;/font&gt;" style="text;html=1;align=center;verticalAlign=middle;whiteSpace=wrap;rounded=0;strokeColor=none;fillColor=none;" vertex="1" parent="1">
          <mxGeometry x="230" y="228" width="60" height="30" as="geometry" />
        </mxCell>
        <mxCell id="a5mHZJZjGpSUE6G3XbtX-131" style="edgeStyle=orthogonalEdgeStyle;rounded=0;orthogonalLoop=1;jettySize=auto;html=1;exitX=1;exitY=0.5;exitDx=0;exitDy=0;entryX=-0.019;entryY=0.962;entryDx=0;entryDy=0;entryPerimeter=0;strokeColor=#FF0000;" edge="1" parent="1" source="a5mHZJZjGpSUE6G3XbtX-127" target="a5mHZJZjGpSUE6G3XbtX-98">
          <mxGeometry relative="1" as="geometry">
            <Array as="points">
              <mxPoint x="700" y="215" />
              <mxPoint x="700" y="160" />
              <mxPoint x="730" y="160" />
              <mxPoint x="730" y="81" />
            </Array>
          </mxGeometry>
        </mxCell>
        <mxCell id="a5mHZJZjGpSUE6G3XbtX-138" value="&lt;b&gt;FacultyToField&lt;/b&gt;" style="swimlane;fontStyle=0;childLayout=stackLayout;horizontal=1;startSize=26;fillColor=none;horizontalStack=0;resizeParent=1;resizeParentMax=0;resizeLast=0;collapsible=1;marginBottom=0;whiteSpace=wrap;html=1;" vertex="1" parent="1">
          <mxGeometry x="810" y="262" width="160" height="78" as="geometry" />
        </mxCell>
        <mxCell id="a5mHZJZjGpSUE6G3XbtX-139" value="+ faculty_id: Integer, PK, FK" style="text;strokeColor=none;fillColor=none;align=left;verticalAlign=top;spacingLeft=4;spacingRight=4;overflow=hidden;rotatable=0;points=[[0,0.5],[1,0.5]];portConstraint=eastwest;whiteSpace=wrap;html=1;" vertex="1" parent="a5mHZJZjGpSUE6G3XbtX-138">
          <mxGeometry y="26" width="160" height="26" as="geometry" />
        </mxCell>
        <mxCell id="a5mHZJZjGpSUE6G3XbtX-140" value="+ field_id: Integer, PK, FK" style="text;strokeColor=none;fillColor=none;align=left;verticalAlign=top;spacingLeft=4;spacingRight=4;overflow=hidden;rotatable=0;points=[[0,0.5],[1,0.5]];portConstraint=eastwest;whiteSpace=wrap;html=1;" vertex="1" parent="a5mHZJZjGpSUE6G3XbtX-138">
          <mxGeometry y="52" width="160" height="26" as="geometry" />
        </mxCell>
        <mxCell id="a5mHZJZjGpSUE6G3XbtX-144" style="edgeStyle=orthogonalEdgeStyle;rounded=0;orthogonalLoop=1;jettySize=auto;html=1;exitX=0;exitY=0.5;exitDx=0;exitDy=0;entryX=1;entryY=0.5;entryDx=0;entryDy=0;strokeColor=#FF0000;" edge="1" parent="1" source="a5mHZJZjGpSUE6G3XbtX-108" target="a5mHZJZjGpSUE6G3XbtX-50">
          <mxGeometry relative="1" as="geometry">
            <Array as="points">
              <mxPoint x="880" y="435" />
              <mxPoint x="880" y="350" />
              <mxPoint x="750" y="350" />
              <mxPoint x="750" y="290" />
              <mxPoint x="660" y="290" />
              <mxPoint x="660" y="298" />
            </Array>
          </mxGeometry>
        </mxCell>
        <mxCell id="a5mHZJZjGpSUE6G3XbtX-149" style="edgeStyle=orthogonalEdgeStyle;rounded=0;orthogonalLoop=1;jettySize=auto;html=1;exitX=1;exitY=0.5;exitDx=0;exitDy=0;entryX=0;entryY=0.5;entryDx=0;entryDy=0;strokeColor=#FF0000;" edge="1" parent="1" source="a5mHZJZjGpSUE6G3XbtX-151" target="a5mHZJZjGpSUE6G3XbtX-98">
          <mxGeometry relative="1" as="geometry">
            <Array as="points">
              <mxPoint x="940" y="69" />
            </Array>
          </mxGeometry>
        </mxCell>
        <mxCell id="a5mHZJZjGpSUE6G3XbtX-150" value="&lt;font color=&quot;#ff0000&quot;&gt;FK&lt;/font&gt;" style="text;html=1;align=center;verticalAlign=middle;whiteSpace=wrap;rounded=0;strokeColor=none;fillColor=none;" vertex="1" parent="1">
          <mxGeometry x="960" y="80" width="20" height="20" as="geometry" />
        </mxCell>
        <mxCell id="a5mHZJZjGpSUE6G3XbtX-152" value="" style="edgeStyle=orthogonalEdgeStyle;rounded=0;orthogonalLoop=1;jettySize=auto;html=1;exitX=1;exitY=0.5;exitDx=0;exitDy=0;entryX=0;entryY=0.5;entryDx=0;entryDy=0;strokeColor=#FF0000;" edge="1" parent="1" source="a5mHZJZjGpSUE6G3XbtX-140" target="a5mHZJZjGpSUE6G3XbtX-151">
          <mxGeometry relative="1" as="geometry">
            <mxPoint x="970" y="327" as="sourcePoint" />
            <mxPoint x="990" y="69" as="targetPoint" />
            <Array as="points">
              <mxPoint x="970" y="323" />
              <mxPoint x="990" y="323" />
              <mxPoint x="990" y="260" />
              <mxPoint x="940" y="260" />
            </Array>
          </mxGeometry>
        </mxCell>
        <mxCell id="a5mHZJZjGpSUE6G3XbtX-151" value="&lt;font color=&quot;#ff0000&quot;&gt;FK&lt;/font&gt;" style="text;html=1;align=center;verticalAlign=middle;whiteSpace=wrap;rounded=0;strokeColor=none;fillColor=none;" vertex="1" parent="1">
          <mxGeometry x="950" y="50" width="20" height="20" as="geometry" />
        </mxCell>
        <mxCell id="a5mHZJZjGpSUE6G3XbtX-154" value="&lt;font color=&quot;#ff0000&quot;&gt;FK&lt;/font&gt;" style="text;html=1;align=center;verticalAlign=middle;whiteSpace=wrap;rounded=0;strokeColor=#FF3333;" vertex="1" parent="1">
          <mxGeometry x="660" y="270" width="20" height="20" as="geometry" />
        </mxCell>
        <mxCell id="a5mHZJZjGpSUE6G3XbtX-157" value="" style="edgeStyle=orthogonalEdgeStyle;rounded=0;orthogonalLoop=1;jettySize=auto;html=1;exitX=0;exitY=0.5;exitDx=0;exitDy=0;entryX=1.004;entryY=0.192;entryDx=0;entryDy=0;entryPerimeter=0;fillColor=#FF3333;strokeColor=#FF0000;" edge="1" parent="1" source="a5mHZJZjGpSUE6G3XbtX-50" target="a5mHZJZjGpSUE6G3XbtX-155">
          <mxGeometry relative="1" as="geometry">
            <mxPoint x="410" y="298" as="sourcePoint" />
            <mxPoint x="321" y="61" as="targetPoint" />
            <Array as="points">
              <mxPoint x="390" y="298" />
              <mxPoint x="390" y="230" />
              <mxPoint x="460" y="230" />
              <mxPoint x="460" y="61" />
            </Array>
          </mxGeometry>
        </mxCell>
        <mxCell id="a5mHZJZjGpSUE6G3XbtX-155" value="&lt;font color=&quot;#ff0000&quot;&gt;FK&lt;/font&gt;" style="text;html=1;align=center;verticalAlign=middle;whiteSpace=wrap;rounded=0;strokeColor=#FF3333;fillColor=none;" vertex="1" parent="1">
          <mxGeometry x="347.5" y="47.5" width="35" height="25" as="geometry" />
        </mxCell>
        <mxCell id="a5mHZJZjGpSUE6G3XbtX-158" style="edgeStyle=orthogonalEdgeStyle;rounded=0;orthogonalLoop=1;jettySize=auto;html=1;exitX=0;exitY=0.5;exitDx=0;exitDy=0;entryX=1;entryY=0.5;entryDx=0;entryDy=0;strokeColor=#FF0000;" edge="1" parent="1" source="a5mHZJZjGpSUE6G3XbtX-139" target="a5mHZJZjGpSUE6G3XbtX-94">
          <mxGeometry relative="1" as="geometry">
            <Array as="points">
              <mxPoint x="710" y="301" />
              <mxPoint x="710" y="320" />
            </Array>
          </mxGeometry>
        </mxCell>
        <mxCell id="a5mHZJZjGpSUE6G3XbtX-162" style="edgeStyle=orthogonalEdgeStyle;rounded=0;orthogonalLoop=1;jettySize=auto;html=1;exitX=0;exitY=0.5;exitDx=0;exitDy=0;entryX=0;entryY=0.5;entryDx=0;entryDy=0;strokeColor=#FF0000;" edge="1" parent="1" source="a5mHZJZjGpSUE6G3XbtX-94" target="a5mHZJZjGpSUE6G3XbtX-96">
          <mxGeometry relative="1" as="geometry">
            <Array as="points">
              <mxPoint x="350" y="320" />
              <mxPoint x="350" y="70" />
            </Array>
          </mxGeometry>
        </mxCell>
        <mxCell id="a5mHZJZjGpSUE6G3XbtX-163" value="&lt;font color=&quot;#ff0000&quot;&gt;FK&lt;/font&gt;" style="text;html=1;align=center;verticalAlign=middle;whiteSpace=wrap;rounded=0;strokeColor=none;fillColor=none;" vertex="1" parent="1">
          <mxGeometry x="470" y="68" width="20" height="20" as="geometry" />
        </mxCell>
        <mxCell id="a5mHZJZjGpSUE6G3XbtX-165" value="&lt;font color=&quot;#ff0000&quot;&gt;FK&lt;/font&gt;" style="text;html=1;align=center;verticalAlign=middle;whiteSpace=wrap;rounded=0;strokeColor=none;fillColor=none;" vertex="1" parent="1">
          <mxGeometry x="1130" y="413" width="30" height="23" as="geometry" />
        </mxCell>
      </root>
    </mxGraphModel>
  </diagram>
</mxfile>
